<svg width="1020.8399902343749px" height="179.72000732421876px" xmlns="http://www.w3.org/2000/svg" viewBox="-260.41999511718745 -14.860003662109378 1020.8399902343749 179.72000732421876" style="background: rgba(0, 0, 0, 0) none repeat scroll 0% 0%;" preserveAspectRatio="xMidYMid"><defs><filter id="editing-hover" x="-100%" y="-100%" width="300%" height="300%"><feFlood flood-color="none" result="flood"></feFlood><feComposite operator="in" in2="SourceAlpha" in="flood" result="shadow"></feComposite><feOffset dx="0.1" dy="0" in="SourceGraphic" result="offset-1"></feOffset><feOffset dx="-0.1" dy="0" in="shadow" result="offset-2"></feOffset><feMerge><feMergeNode in="offset-2"></feMergeNode><feMergeNode in="offset-1"></feMergeNode></feMerge></filter></defs><g filter="url(#editing-hover)"><g transform="translate(-114.839599609375, 125.00000190734863)"><path d="M45.60 2L45.60 2L45.60 2Q32.80 2 31.60-16.20L31.60-16.20L14.40-16.20L14.40-16.20Q12.40-11.60 11-7.60L11-7.60L8.40 0L-5.60 0L25.90-66L47.40-66L51.60-17.40L51.60-17.40Q52.60-6.90 56.60-3.80L56.60-3.80L56.60-3.80Q53.70 2 45.60 2ZM23-36.20L17.50-23.50L31.30-23.50L30.10-49.20L30.10-51.90L23-36.20ZM64.90-62L64.90-62L64.90-62Q67.80-68 75.85-68L75.85-68L75.85-68Q83.90-68 87.65-63.35L87.65-63.35L87.65-63.35Q91.40-58.70 91.40-48L91.40-48L91.40-12.30L115.70-65.90L127.60-65.90L96.50 0L73.10 0L70.10-48L70.10-48Q69.80-53.30 68.35-56.90L68.35-56.90L68.35-56.90Q66.90-60.50 64.90-62ZM166.30-15.40L166.30-15.40L166.30-15.40Q168.20-13 168.20-9.10L168.20-9.10L168.20-9.10Q168.20-3.70 164.20-0.85L164.20-0.85L164.20-0.85Q160.20 2 153.90 2L153.90 2L153.90 2Q150.30 2 144.80 1.20L144.80 1.20L144.80 1.20Q134-0.50 130.70-0.50L130.70-0.50L130.70-0.50Q127.40-0.50 126.10-0.35L126.10-0.35L126.10-0.35Q124.80-0.20 122.70 0L122.70 0L135-66L178.10-66L178.10-66Q178.10-59.90 175.15-56.70L175.15-56.70L175.15-56.70Q172.20-53.50 166.40-53.50L166.40-53.50L166.40-53.50Q160.60-53.50 154.70-56.20L154.70-56.20L151.60-38.70L169.40-38.70L169.40-38.70Q169.40-33.40 166.80-30.45L166.80-30.45L166.80-30.45Q164.20-27.50 159.85-27.50L159.85-27.50L159.85-27.50Q155.50-27.50 152.80-28.50L152.80-28.50L152.80-28.50Q150.10-29.50 149.80-29.80L149.80-29.80L146.20-10.90L146.20-10.90Q148.60-10.60 153.10-10.60L153.10-10.60L153.10-10.60Q160.80-10.60 166.30-15.40ZM198.10 0L176.30 0L189.00-66L211.00-66L198.10 0ZM233.70 0L212.30 0L224.50-65.70L224.50-65.70Q234.40-66.80 248.85-66.80L248.85-66.80L248.85-66.80Q263.30-66.80 270-62.60L270-62.60L270-62.60Q276.70-58.40 276.70-49.95L276.70-49.95L276.70-49.95Q276.70-41.50 272.35-36.20L272.35-36.20L272.35-36.20Q268-30.90 260.50-29.20L260.50-29.20L260.50-29.20Q262.20-20.90 266.10-14.20L266.10-14.20L266.10-14.20Q269.70-7.90 273.90-5.90L273.90-5.90L273.90-5.90Q272.40-1.70 269.35 0.15L269.35 0.15L269.35 0.15Q266.30 2 261.95 2L261.95 2L261.95 2Q257.60 2 254.20-0.55L254.20-0.55L254.20-0.55Q250.80-3.10 248.10-7.80L248.10-7.80L248.10-7.80Q242.40-18 241.80-34.10L241.80-34.10L242.50-34.10L242.50-34.10Q249.90-34.30 253.60-38.15L253.60-38.15L253.60-38.15Q257.30-42 257.30-50.10L257.30-50.10L257.30-50.10Q257.30-60.20 248.80-60.60L248.80-60.60L246.60-60.60L246.60-60.60Q245.70-60.60 245.20-60.50L245.20-60.50L233.70 0ZM282.80-24.40L282.80-24.40L282.80-24.40Q282.80-43.30 292.60-55.20L292.60-55.20L292.60-55.20Q303-68.10 321.10-68.10L321.10-68.10L321.10-68.10Q334.20-68.10 340.80-61.75L340.80-61.75L340.80-61.75Q347.40-55.40 347.40-42L347.40-42L347.40-42Q347.40-21.60 337-9.70L337-9.70L337-9.70Q326.70 2 309.40 2L309.40 2L309.40 2Q295.90 2 289.35-4.75L289.35-4.75L289.35-4.75Q282.80-11.50 282.80-24.40ZM309.10-45.10L309.10-45.10L309.10-45.10Q304.60-27.10 304.60-12.90L304.60-12.90L304.60-12.90Q304.60-9.50 305.75-7.30L305.75-7.30L305.75-7.30Q306.90-5.10 309.95-5.10L309.95-5.10L309.95-5.10Q313-5.10 314.90-6.55L314.90-6.55L314.90-6.55Q316.80-8 318.30-11.30L318.30-11.30L318.30-11.30Q320.70-16.70 322.95-28.15L322.95-28.15L322.95-28.15Q325.20-39.60 325.40-44.35L325.40-44.35L325.40-44.35Q325.60-49.10 325.60-52.70L325.60-52.70L325.60-52.70Q325.60-56.30 324.50-58.60L324.50-58.60L324.50-58.60Q323.40-60.90 320.45-60.90L320.45-60.90L320.45-60.90Q317.50-60.90 315.50-59.10L315.50-59.10L315.50-59.10Q311.80-55.70 309.10-45.10ZM361 20L346.40 20L365.90-80L380.10-80L361 20ZM387.30 0L375.80 0L393.90-66L414.80-66L419.40-28.30L438-66L455.50-66L457.30-16.60L457.30-16.60Q457.70-6.80 462.50-3.80L462.50-3.80L462.50-3.80Q461.40-1.80 458.20 0.10L458.20 0.10L458.20 0.10Q455 2 450.75 2L450.75 2L450.75 2Q446.50 2 444 0.80L444 0.80L444 0.80Q441.50-0.40 440.10-2.40L440.10-2.40L440.10-2.40Q437.60-6 437.60-12.90L437.60-12.90L437.60-43.80L417.90 0L405.50 0L398.50-44.90L387.30 0ZM471.15-3L471.15-3L471.15-3Q468.80-5.60 467.75-9.70L467.75-9.70L467.75-9.70Q466.70-13.80 466.70-20.50L466.70-20.50L466.70-20.50Q466.70-27.20 469-33.30L469-33.30L469-33.30Q471.30-39.40 475.50-43.80L475.50-43.80L475.50-43.80Q484.10-53 498.30-53L498.30-53L498.30-53Q503.40-53 507.10-51.30L507.10-51.30L524.20-53L516.80-14L516.80-14Q516.50-12.80 516.50-10.60L516.50-10.60L516.50-10.60Q516.50-8.40 517.85-7L517.85-7L517.85-7Q519.20-5.60 521.20-5.40L521.20-5.40L521.20-5.40Q520.20-2 516.55 0L516.55 0L516.55 0Q512.90 2 508.80 2L508.80 2L508.80 2Q504.70 2 501.95 0.45L501.95 0.45L501.95 0.45Q499.20-1.10 498.40-3.70L498.40-3.70L498.40-3.70Q496.80-1.20 493.40 0.40L493.40 0.40L493.40 0.40Q490 2 485.45 2L485.45 2L485.45 2Q480.90 2 477.20 0.80L477.20 0.80L477.20 0.80Q473.50-0.40 471.15-3ZM492.25-43.60L492.25-43.60L492.25-43.60Q491.10-41.80 490.10-38.75L490.10-38.75L490.10-38.75Q489.10-35.70 487.45-27.55L487.45-27.55L487.45-27.55Q485.80-19.40 485.80-13.60L485.80-13.60L485.80-13.60Q485.80-7.80 486.70-6.10L486.70-6.10L486.70-6.10Q487.60-4.40 489.20-4.40L489.20-4.40L489.20-4.40Q492.40-4.40 494.75-7.45L494.75-7.45L494.75-7.45Q497.10-10.50 498-15.90L498-15.90L503.30-45.20L503.30-45.20Q501.20-47 498.75-47L498.75-47L498.75-47Q496.30-47 494.85-46.20L494.85-46.20L494.85-46.20Q493.40-45.40 492.25-43.60ZM560.90-28.10L560.90-28.10L560.90-28.10Q564.50-34.50 564.50-41L564.50-41L564.50-41Q564.50-45.30 561.40-45.30L561.40-45.30L561.40-45.30Q559-45.30 556.50-41.20L556.50-41.20L556.50-41.20Q553.90-37.10 553.10-31.80L553.10-31.80L547.90 0L527.20 2L537.40-51L553.90-53L552.10-42.90L552.10-42.90Q557-53 568-53L568-53L568-53Q573.80-53 576.95-50L576.95-50L576.95-50Q580.10-47 580.10-40.85L580.10-40.85L580.10-40.85Q580.10-34.70 576.05-30.80L576.05-30.80L576.05-30.80Q572-26.90 565.10-26.90L565.10-26.90L565.10-26.90Q562.10-26.90 560.90-28.10ZM607.50-47.40L607.50-47.40L607.50-47.40Q612.90-53 624.30-53L624.30-53L624.30-53Q630.60-53 634.05-49.65L634.05-49.65L634.05-49.65Q637.50-46.30 637.50-40.15L637.50-40.15L637.50-40.15Q637.50-34 634.05-29.65L634.05-29.65L634.05-29.65Q630.60-25.30 624.20-23.50L624.20-23.50L624.20-23.50Q624.70-21.50 625.40-19.40L625.40-19.40L626.80-15.40L626.80-15.40Q628.70-10.30 630.20-8.50L630.20-8.50L630.20-8.50Q631.70-6.70 633.70-6.10L633.70-6.10L633.70-6.10Q632.60-2 628.60 0.20L628.60 0.20L628.60 0.20Q625.40 2 621 2L621 2L621 2Q608.10 2 606.40-17.90L606.40-17.90L606.40-17.90Q606.10-20.70 606.10-23.50L606.10-23.50L606.10-23.50Q611.10-24.90 614.60-29.60L614.60-29.60L614.60-29.60Q618.10-34.30 618.10-39.80L618.10-39.80L618.10-39.80Q618.10-45.30 614.20-45.30L614.20-45.30L614.20-45.30Q611.40-45.30 609.20-42.20L609.20-42.20L609.20-42.20Q607-39.10 606-33.80L606-33.80L599.40 0L579.20 2L593.20-70L613.30-72L611-60.10L611-60.10Q609.50-51.70 607.50-47.40ZM682.60-16.90L682.60-16.90L682.60-16.90Q685.10-15.20 685.10-11.45L685.10-11.45L685.10-11.45Q685.10-7.70 683.20-5.30L683.20-5.30L683.20-5.30Q681.30-2.90 678.20-1.30L678.20-1.30L678.20-1.30Q671.80 2 664.90 2L664.90 2L664.90 2Q658 2 653.95 0.50L653.95 0.50L653.95 0.50Q649.90-1 647.20-3.80L647.20-3.80L647.20-3.80Q641.90-9.10 641.90-18.80L641.90-18.80L641.90-18.80Q641.90-33.90 650.10-43.10L650.10-43.10L650.10-43.10Q658.90-53 674.20-53L674.20-53L674.20-53Q683.70-53 688.40-49L688.40-49L688.40-49Q691.90-46 691.90-41.10L691.90-41.10L691.90-41.10Q691.90-23.50 661.50-23.50L661.50-23.50L661.50-23.50Q661.10-20.90 661.10-18.70L661.10-18.70L661.10-18.70Q661.10-14.10 663.15-12.35L663.15-12.35L663.15-12.35Q665.20-10.60 669-10.60L669-10.60L669-10.60Q672.80-10.60 676.85-12.35L676.85-12.35L676.85-12.35Q680.90-14.10 682.60-16.90ZM662.20-27.80L662.20-27.80L662.20-27.80Q669.30-27.80 673.40-32.20L673.40-32.20L673.40-32.20Q677.50-36.40 677.50-43.10L677.50-43.10L677.50-43.10Q677.50-45.40 676.65-46.65L676.65-46.65L676.65-46.65Q675.80-47.90 674.10-47.90L674.10-47.90L674.10-47.90Q672.40-47.90 670.95-47.25L670.95-47.25L670.95-47.25Q669.50-46.60 668-44.40L668-44.40L668-44.40Q664.30-39.40 662.20-27.80ZM696.90-10L696.90-10L696.90-10Q696.90-12.70 698.30-19.50L698.30-19.50L703.60-46.50L697.70-46.50L698.10-49.50L698.10-49.50Q710.10-53.10 721.70-61.90L721.70-61.90L726.50-61.90L724.10-51L731.90-51L731-46.50L723.30-46.50L718.20-19.50L718.20-19.50Q716.90-13.30 716.90-11.20L716.90-11.20L716.90-11.20Q716.90-6.40 721.10-5.40L721.10-5.40L721.10-5.40Q720.10-2 716.50 0L716.50 0L716.50 0Q712.90 2 707.80 2L707.80 2L707.80 2Q702.70 2 699.80-1.20L699.80-1.20L699.80-1.20Q696.90-4.40 696.90-10Z" fill="#ffffff"></path></g></g><style>text {
  font-size: 64px;
  font-family: Arial Black;
  dominant-baseline: central;
  text-anchor: middle;
}</style></svg>