<?xml version="1.0" encoding="utf-8"?>
<!-- Generator: Adobe Illustrator 24.1.1, SVG Export Plug-In . SVG Version: 6.00 Build 0)  -->
<svg version="1.1" id="Layer_1" xmlns="http://www.w3.org/2000/svg" xmlns:xlink="http://www.w3.org/1999/xlink" x="0px" y="0px"
	 viewBox="0 0 919.4 982.3" style="enable-background:new 0 0 919.4 982.3;" xml:space="preserve">
<style type="text/css">
	.st0{fill:#D7E8EF;}
	.st1{fill:none;stroke:#D7E8EF;stroke-miterlimit:10;}
	.st2{fill:url(#SVGID_1_);}
	.st3{fill:url(#SVGID_2_);}
	.st4{fill:url(#SVGID_3_);}
	.st5{fill:url(#SVGID_4_);}
	.st6{fill:url(#SVGID_5_);}
	.st7{fill:url(#SVGID_6_);}
	.st8{fill:#D4E5EC;}
	.st9{fill:url(#SVGID_7_);}
	.st10{fill:url(#SVGID_8_);}
	.st11{fill:url(#SVGID_9_);}
	.st12{fill:#002745;}
	.st13{fill:#56538E;}
	.st14{fill:#6A8D9F;}
	.st15{fill:url(#SVGID_10_);}
	.st16{fill:url(#SVGID_11_);}
	.st17{fill:url(#SVGID_12_);}
	.st18{fill:url(#SVGID_13_);}
	.st19{fill:url(#SVGID_14_);}
	.st20{fill:url(#SVGID_15_);}
	.st21{fill:url(#SVGID_16_);}
	.st22{fill:url(#SVGID_17_);}
	.st23{fill:#CD006B;}
	.st24{fill:#FFC8AE;}
	.st25{fill:url(#SVGID_18_);}
	.st26{fill:#FFB297;}
	.st27{fill:url(#SVGID_19_);}
	.st28{fill:url(#SVGID_20_);}
	.st29{fill:#9EB7C7;}
	.st30{fill:#F7FAFB;}
	.st31{fill:url(#SVGID_21_);}
	.st32{fill:url(#SVGID_22_);}
	.st33{fill:url(#SVGID_23_);}
	.st34{fill:url(#SVGID_24_);}
	.st35{fill:#BDD3DD;}
	.st36{fill:url(#SVGID_25_);}
</style>
<g>
	<g id="Layer_1_1_">
		<path class="st0" d="M714.5,792.3c-5.2,0-9.4-4.2-9.4-9.4s4.2-9.4,9.4-9.4s9.4,4.2,9.4,9.4C723.9,788.1,719.7,792.3,714.5,792.3z
			 M714.5,775.9c-3.9,0-7.1,3.2-7.1,7.1s3.2,7.1,7.1,7.1c3.9,0,7.1-3.2,7.1-7.1C721.6,779,718.4,775.9,714.5,775.9z"/>
		<path class="st0" d="M748.3,792.3c-5.2,0-9.4-4.2-9.4-9.4s4.2-9.4,9.4-9.4s9.4,4.2,9.4,9.4C757.7,788.1,753.5,792.3,748.3,792.3z
			 M748.3,775.9c-3.9,0-7.1,3.1-7.1,7c0,3.9,3.1,7.1,7,7.1s7.1-3.1,7.1-7c0,0,0,0,0,0C755.4,779,752.2,775.9,748.3,775.9z"/>
		<path class="st0" d="M782.2,792.3c-5.2,0-9.4-4.2-9.4-9.4s4.2-9.4,9.4-9.4c5.2,0,9.4,4.2,9.4,9.4
			C791.6,788.1,787.4,792.3,782.2,792.3z M782.2,775.9c-3.9,0-7.1,3.2-7.1,7.1s3.2,7.1,7.1,7.1s7.1-3.2,7.1-7.1
			S786.1,775.9,782.2,775.9C782.2,775.9,782.2,775.9,782.2,775.9z"/>
		<path class="st0" d="M816,792.3c-5.2,0-9.4-4.2-9.4-9.4s4.2-9.4,9.4-9.4c5.2,0,9.4,4.2,9.4,9.4C825.4,788.1,821.2,792.3,816,792.3
			z M816,775.9c-3.9,0-7.1,3.2-7.1,7.1s3.2,7.1,7.1,7.1s7.1-3.2,7.1-7.1S819.9,775.9,816,775.9C816,775.9,816,775.9,816,775.9z"/>
		<path class="st0" d="M142.6,128.7c-6.6,0-11.9-5.3-11.9-11.9s5.3-11.9,11.9-11.9c6.6,0,11.9,5.3,11.9,11.9
			C154.6,123.4,149.2,128.7,142.6,128.7z M142.6,107.2c-5.3,0-9.6,4.3-9.6,9.6c0,5.3,4.3,9.6,9.6,9.6s9.6-4.3,9.6-9.6
			C152.2,111.6,147.9,107.3,142.6,107.2L142.6,107.2z"/>
		<path class="st0" d="M142.6,173c-6.6,0-11.9-5.3-11.9-11.9c0-6.6,5.3-11.9,11.9-11.9c6.6,0,11.9,5.3,11.9,11.9l0,0
			C154.6,167.7,149.2,173,142.6,173z M142.6,151.5c-5.3,0-9.6,4.3-9.6,9.6c0,5.3,4.3,9.6,9.6,9.6s9.6-4.3,9.6-9.6l0,0
			C152.2,155.8,147.9,151.5,142.6,151.5z"/>
		<path class="st0" d="M142.6,217.3c-6.6,0-11.9-5.3-11.9-11.9c0-6.6,5.3-11.9,11.9-11.9s11.9,5.3,11.9,11.9c0,0,0,0,0,0
			C154.6,212,149.2,217.3,142.6,217.3z M142.6,195.8c-5.3,0-9.6,4.3-9.6,9.6s4.3,9.6,9.6,9.6s9.6-4.3,9.6-9.6l0,0
			C152.2,200.1,148,195.8,142.6,195.8C142.6,195.8,142.6,195.8,142.6,195.8L142.6,195.8z"/>
		<path class="st0" d="M142.6,261.6c-6.6,0-11.9-5.3-11.9-11.9c0-6.6,5.3-11.9,11.9-11.9c6.6,0,11.9,5.3,11.9,11.9l0,0
			C154.6,256.3,149.2,261.6,142.6,261.6z M142.6,240.1c-5.3,0-9.6,4.3-9.6,9.6s4.3,9.6,9.6,9.6s9.6-4.3,9.6-9.6l0,0
			C152.2,244.4,147.9,240.1,142.6,240.1z"/>
		<path class="st0" d="M660.6,373.6c-53.5,0-96.9-43.4-96.9-96.9s43.4-96.9,96.9-96.9c53.5,0,96.9,43.4,96.9,96.9v0
			C757.5,330.2,714.1,373.5,660.6,373.6z M660.6,182.2c-52.2,0-94.5,42.3-94.5,94.5s42.3,94.5,94.5,94.5s94.5-42.3,94.5-94.5
			C755.1,224.5,712.8,182.2,660.6,182.2L660.6,182.2z"/>
		<path class="st0" d="M255.1,177.8c-25.5,0-46.2-20.7-46.2-46.2s20.7-46.2,46.2-46.2s46.2,20.7,46.2,46.2c0,0,0,0,0,0
			C301.3,157.1,280.6,177.8,255.1,177.8z M255.1,87.7c-24.3,0-43.9,19.7-43.9,43.9s19.7,43.9,43.9,43.9c24.3,0,43.9-19.7,43.9-43.9
			c0,0,0,0,0,0C299,107.3,279.4,87.7,255.1,87.7z"/>
		<circle class="st1" cx="454.1" cy="179.4" r="97.3"/>
		
			<ellipse transform="matrix(0.7071 -0.7071 0.7071 0.7071 6.1437 373.6808)" class="st1" cx="454.1" cy="179.4" rx="81.1" ry="81.1"/>
		<ellipse transform="matrix(0.7071 -0.7071 0.7071 0.7071 6.1437 373.6808)" class="st1" cx="454.1" cy="179.4" rx="65" ry="65"/>
		<ellipse transform="matrix(0.7071 -0.7071 0.7071 0.7071 6.1437 373.6808)" class="st1" cx="454.1" cy="179.4" rx="49" ry="49"/>
		<circle class="st1" cx="454.1" cy="179.4" r="33.5"/>
		<path class="st1" d="M464.6,195.7c-9,5.8-20.9,3.2-26.7-5.7c-5.8-9-3.2-20.9,5.7-26.7c9-5.8,20.9-3.2,26.7,5.7c0,0,0,0,0,0
			C476.1,177.9,473.6,189.9,464.6,195.7z"/>
		<circle class="st1" cx="454.1" cy="179.4" r="12.6"/>
		<circle class="st1" cx="783.9" cy="615.3" r="58.6"/>
		<circle class="st1" cx="783.9" cy="615.3" r="44"/>
		<circle class="st1" cx="783.9" cy="615.3" r="29.6"/>
		<path class="st1" d="M789.6,629.9c-8.1,3.1-17.2-0.9-20.3-9c-3.1-8.1,0.9-17.2,9-20.3c8.1-3.1,17.2,0.9,20.3,9
			C801.7,617.7,797.7,626.8,789.6,629.9C789.6,629.9,789.6,629.9,789.6,629.9z"/>
		<path class="st1" d="M791.5,615.3c0,4.2-3.4,7.6-7.6,7.6c-4.2,0-7.6-3.4-7.6-7.6c0-4.2,3.4-7.6,7.6-7.6c0,0,0,0,0,0
			C788.1,607.7,791.5,611.1,791.5,615.3z"/>
		<circle class="st1" cx="135.5" cy="357.1" r="58.6"/>
		<ellipse transform="matrix(0.8988 -0.4384 0.4384 0.8988 -142.8574 95.529)" class="st1" cx="135.5" cy="357.2" rx="44" ry="44"/>
		
			<ellipse transform="matrix(0.9819 -0.1896 0.1896 0.9819 -65.2634 32.1619)" class="st1" cx="135.5" cy="357.2" rx="29.6" ry="29.6"/>
		<path class="st1" d="M141.2,371.8c-8.1,3.1-17.2-0.9-20.3-9c-3.1-8.1,0.9-17.2,9-20.3c8.1-3.1,17.2,0.9,20.3,9
			C153.3,359.6,149.2,368.7,141.2,371.8C141.2,371.8,141.2,371.8,141.2,371.8z"/>
		<path class="st1" d="M143.1,357.1c0,4.2-3.4,7.6-7.6,7.6c-4.2,0-7.6-3.4-7.6-7.6c0-4.2,3.4-7.6,7.6-7.6c0,0,0,0,0,0
			C139.7,349.6,143.1,353,143.1,357.1z"/>
		<path class="st0" d="M166.6,544.5h578.9c11.7,0,21.2,9.5,21.2,21.2v223.8c0,11.7-9.5,21.2-21.2,21.2H166.6
			c-11.7,0-21.2-9.5-21.2-21.2V565.7C145.4,554,154.9,544.5,166.6,544.5z"/>
		<path class="st0" d="M457.4,459.5h308.7c11.5,0,20.8,9.3,20.8,20.8v123.7c0,11.5-9.3,20.8-20.8,20.8H457.4
			c-11.5,0-20.8-9.3-20.8-20.8V480.3C436.6,468.8,445.9,459.5,457.4,459.5z"/>
		<path class="st0" d="M463.2,357.1h103.4c11.5,0,20.8,9.3,20.8,20.8v103.4c0,11.5-9.3,20.8-20.8,20.8H463.2
			c-11.5,0-20.8-9.3-20.8-20.8V377.9C442.4,366.5,451.7,357.1,463.2,357.1z"/>
		<path class="st0" d="M149,528.9h103.4c11.5,0,20.8,9.3,20.8,20.8v103.4c0,11.5-9.3,20.8-20.8,20.8H149c-11.5,0-20.8-9.3-20.8-20.8
			V549.7C128.2,538.2,137.5,528.9,149,528.9z"/>
		
			<linearGradient id="SVGID_1_" gradientUnits="userSpaceOnUse" x1="427.3179" y1="575.1605" x2="427.3179" y2="158.7398" gradientTransform="matrix(1 0 0 -1 0 984)">
			<stop  offset="0" style="stop-color:#2EADFF"/>
			<stop  offset="0.23" style="stop-color:#2BA8FF"/>
			<stop  offset="0.49" style="stop-color:#219AFF"/>
			<stop  offset="0.78" style="stop-color:#1082FF"/>
			<stop  offset="1" style="stop-color:#006BFF"/>
		</linearGradient>
		<path class="st2" d="M137.9,544.5h578.9c11.7,0,21.2,9.5,21.2,21.2v223.8c0,11.7-9.5,21.2-21.2,21.2H137.9
			c-11.7,0-21.2-9.5-21.2-21.2V565.7C116.7,554,126.2,544.5,137.9,544.5z"/>
		
			<linearGradient id="SVGID_2_" gradientUnits="userSpaceOnUse" x1="601.7166" y1="575.1605" x2="601.7166" y2="158.7398" gradientTransform="matrix(1 0 0 -1 0 984)">
			<stop  offset="0" style="stop-color:#2EADFF"/>
			<stop  offset="0.23" style="stop-color:#2BA8FF"/>
			<stop  offset="0.49" style="stop-color:#219AFF"/>
			<stop  offset="0.78" style="stop-color:#1082FF"/>
			<stop  offset="1" style="stop-color:#006BFF"/>
		</linearGradient>
		<path class="st3" d="M447.4,459.5h308.7c11.5,0,20.8,9.3,20.8,20.8v123.7c0,11.5-9.3,20.8-20.8,20.8H447.4
			c-11.5,0-20.8-9.3-20.8-20.8V480.3C426.6,468.8,435.9,459.5,447.4,459.5z"/>
		
			<linearGradient id="SVGID_3_" gradientUnits="userSpaceOnUse" x1="486.1998" y1="575.1605" x2="486.1998" y2="158.7398" gradientTransform="matrix(1 0 0 -1 0 984)">
			<stop  offset="0" style="stop-color:#2EADFF"/>
			<stop  offset="0.23" style="stop-color:#2BA8FF"/>
			<stop  offset="0.49" style="stop-color:#219AFF"/>
			<stop  offset="0.78" style="stop-color:#1082FF"/>
			<stop  offset="1" style="stop-color:#006BFF"/>
		</linearGradient>
		<path class="st4" d="M434.5,357.1h103.4c11.5,0,20.8,9.3,20.8,20.8v103.4c0,11.5-9.3,20.8-20.8,20.8H434.5
			c-11.5,0-20.8-9.3-20.8-20.8V377.9C413.7,366.5,423,357.1,434.5,357.1z"/>
		
			<linearGradient id="SVGID_4_" gradientUnits="userSpaceOnUse" x1="171.9354" y1="575.1605" x2="171.9354" y2="158.7398" gradientTransform="matrix(1 0 0 -1 0 984)">
			<stop  offset="0" style="stop-color:#2EADFF"/>
			<stop  offset="0.23" style="stop-color:#2BA8FF"/>
			<stop  offset="0.49" style="stop-color:#219AFF"/>
			<stop  offset="0.78" style="stop-color:#1082FF"/>
			<stop  offset="1" style="stop-color:#006BFF"/>
		</linearGradient>
		<path class="st5" d="M120.3,528.9h103.4c11.5,0,20.8,9.3,20.8,20.8v103.4c0,11.5-9.3,20.8-20.8,20.8H120.3
			c-11.5,0-20.8-9.3-20.8-20.8V549.7C99.5,538.2,108.8,528.9,120.3,528.9z"/>
		
			<linearGradient id="SVGID_5_" gradientUnits="userSpaceOnUse" x1="733.7761" y1="145.941" x2="820.5918" y2="-4.4113" gradientTransform="matrix(1 0 0 -1 -80.09 799.67)">
			<stop  offset="0" style="stop-color:#FC697D"/>
			<stop  offset="1" style="stop-color:#DC2276"/>
		</linearGradient>
		<path class="st6" d="M759.3,720.7c-4.5-1.5-19.1,31.3-31.7,61.8c21.5-82.8,29.8-125,24.8-126.6c-4.8-1.6-21.7,34.3-50.9,107.5
			c1.9-88.9,0.2-133.5-5.2-134c-5.6-0.5-10.4,47.4-23.7,140.9c-8.3-52.8-18.9-80.4-22.4-80c-3.7,0.3-0.2,32.2,1.5,92.2
			c-17.2-35.6-31.3-54.8-33.3-53.9c-2.2,0.9,5.3,25.1,22.6,72.6h104.6C745.6,801.1,766.5,723.1,759.3,720.7z"/>
		
			<linearGradient id="SVGID_6_" gradientUnits="userSpaceOnUse" x1="576.6002" y1="365.4602" x2="576.6002" y2="176.0239" gradientTransform="matrix(1 0 0 -1 -80.09 799.67)">
			<stop  offset="0" style="stop-color:#FACF5C"/>
			<stop  offset="1" style="stop-color:#FF7257"/>
		</linearGradient>
		<path class="st7" d="M535,577.9c-2.5-2.4-6.9-2.3-8.4-5.7c-1.3-2.9-0.2-7.5,1.9-11.1c2.1-3.6,4.9-6.5,7.7-9.3
			c6.9-6.9,14.2-14.3,18.1-24.2c3.9-10,2.5-22.9-4.3-24.9c-4-1.2-9.1,1.1-12.1-2.3c-2.8-3.2-2.2-9.6-0.3-14.5
			c1.9-4.9,4.8-9.2,6.7-14.2c3-8,2.9-17.7-0.3-25c-3.2-7.3-9.1-11.9-15.3-12.3c-6.2,0.4-12.2,4.5-16.1,10.6
			c-4,6.3-5.8,13.8-5.1,21.3c0.4,4.6,1.8,9.1,1.7,13.8c-0.2,4.7-2.5,10.1-6.4,11.2c-4.2,1.1-7.6-2.8-11.7-3.8
			c-6.9-1.6-13.7,5.6-15.8,13s-1.1,15.2-0.9,22.9c0.1,3.1-0.1,6.4-1.4,9.4c-1.3,3-4.1,5.6-7,5.6c-3.5,0-5.9-3.3-9.2-4.4
			c-4-1.4-8.6,0.4-11.7,3.4c-3.1,3-5,7.1-6.4,11.1c-7.7,23.3,7.1,50.2,1.6,75c26.6-1.7,62.1,6.5,83.4-14.3
			c4.6-4.5,9.1-9.7,11.6-15.7C537.9,587.5,538.1,580.8,535,577.9z"/>
		<g>
			<path class="st8" d="M439.7,624.9c-0.2-0.1-0.4-0.2-0.5-0.4c-0.6-0.7-0.6-1.8,0.1-2.4c49.9-45.5,78.9-101.9,86.2-167.7
				c0.1-0.9,1-1.6,1.9-1.5c0.9,0.1,1.6,1,1.5,1.9l0,0c-7.4,66.6-36.8,123.8-87.3,169.8C441.1,625.1,440.4,625.2,439.7,624.9z"/>
		</g>
		
			<linearGradient id="SVGID_7_" gradientUnits="userSpaceOnUse" x1="-7134.4438" y1="8547.3115" x2="-7134.4438" y2="8303.2051" gradientTransform="matrix(-0.78 0 0 -0.78 -5422.3398 7075.6304)">
			<stop  offset="0" style="stop-color:#FACF5C"/>
			<stop  offset="1" style="stop-color:#FF7257"/>
		</linearGradient>
		<path class="st9" d="M104,577.9c2.5-2.4,6.9-2.3,8.4-5.7c1.3-2.9,0.2-7.5-1.9-11.1c-2.1-3.6-4.9-6.5-7.7-9.3
			c-6.9-6.9-14.2-14.2-18.1-24.2s-2.5-22.9,4.3-24.9c4-1.2,9.1,1.1,12.1-2.3c2.8-3.2,2.2-9.6,0.3-14.5c-1.9-4.9-4.8-9.2-6.7-14.2
			c-3-8-2.9-17.7,0.3-25c3.2-7.3,9.1-11.9,15.3-12.3c6.2,0.4,12.2,4.5,16.1,10.6c4,6.3,5.8,13.8,5.1,21.3c-0.4,4.6-1.8,9.1-1.7,13.8
			c0.2,4.7,2.5,10.1,6.4,11.2c4.2,1.1,7.6-2.8,11.7-3.8c6.9-1.6,13.7,5.6,15.8,13c2.2,7.4,1.1,15.2,0.9,22.9
			c-0.1,3.1,0.1,6.4,1.4,9.4c1.3,3,4.1,5.6,7,5.6c3.5,0,5.9-3.3,9.2-4.4c4-1.4,8.6,0.4,11.7,3.4c3.1,3,5,7.1,6.4,11.1
			c7.7,23.3-7.1,50.2-1.6,75c-26.6-1.7-62.1,6.5-83.4-14.3c-4.6-4.5-9.1-9.7-11.6-15.7C101.1,587.5,100.9,580.8,104,577.9z"/>
		<g>
			<path class="st8" d="M199.3,624.9c0.2-0.1,0.4-0.2,0.5-0.4c0.6-0.7,0.6-1.8-0.1-2.4c-49.9-45.5-78.9-101.9-86.2-167.7
				c-0.1-0.9-1-1.6-1.9-1.5c-0.9,0.1-1.6,1-1.5,1.9l0,0c7.4,66.6,36.8,123.8,87.3,169.8C197.9,625.1,198.7,625.2,199.3,624.9z"/>
		</g>
		
			<linearGradient id="SVGID_8_" gradientUnits="userSpaceOnUse" x1="-7899.2974" y1="8487.3818" x2="-7899.2974" y2="8243.2705" gradientTransform="matrix(0.9609 0.2768 0.2768 -0.9609 5789.144 10863.0469)">
			<stop  offset="0" style="stop-color:#FACF5C"/>
			<stop  offset="1" style="stop-color:#FF7257"/>
		</linearGradient>
		<path class="st10" d="M544.3,712.3c-2.3-3.8-7.7-5.2-8.3-10.1c-0.6-4.1,2.5-9.3,6.3-13.1c3.8-3.7,8.5-6.3,12.9-8.8
			c11-6.1,22.7-12.6,31-23.5c8.4-11,11.2-27.5,3.6-32.4c-4.5-2.9-11.6-1.9-14.1-7.1c-2.3-4.9,0.7-12.6,4.8-18.1
			c4.1-5.4,9.3-9.6,13.4-15.2c6.6-8.8,9.9-20.9,8.5-31.1c-1.3-10.1-7.1-17.9-14.5-20.7c-7.8-1.8-16.7,1.3-23.7,7.4
			c-7.2,6.4-12.1,15-13.9,24.5c-1.2,5.9-1,11.9-2.8,17.7c-1.8,5.8-6.7,11.7-11.9,11.6c-5.6-0.1-8.5-6.2-13.1-8.8
			c-8-4.4-19,2.1-24.2,10.5s-6.7,18.4-9.3,28.1c-1.1,3.9-2.4,7.9-5.1,11.2c-2.7,3.2-7.1,5.4-10.7,4.4c-4.4-1.2-6.2-6.1-9.8-8.7
			c-4.4-3.2-10.8-2.6-15.7,0c-4.9,2.6-8.8,7-11.8,11.5c-17.9,26.1-9.1,64.6-24.7,93.5c33.5,7.5,74.5,30.2,108.3,12.1
			c7.3-3.9,14.7-8.8,20-15.3C544.6,725.2,547.1,717,544.3,712.3z"/>
		<g>
			<path class="st8" d="M409.5,736.6c-0.2-0.2-0.4-0.4-0.5-0.7c-0.5-1.1-0.1-2.4,1-3c78-38.5,134-98,166.6-176.8
				c0.5-1.1,1.9-1.6,3-1c1,0.5,1.5,1.6,1.1,2.7c-33,79.9-89.7,140.1-168.7,179.2C411.2,737.3,410.2,737.2,409.5,736.6z"/>
		</g>
		<path class="st0" d="M203,801.2h580.6c4.9,0,8.9,4,8.9,8.9v33.1c0,4.9-4,8.9-8.9,8.9H203c-4.9,0-8.9-4-8.9-8.9v-33.1
			C194.1,805.2,198.1,801.2,203,801.2z"/>
		<path class="st0" d="M121.2,801.2h509.7c2.5,0,4.6,2,4.6,4.6v16.4c0,2.5-2,4.6-4.6,4.6H121.2c-2.5,0-4.6-2-4.6-4.6v-16.4
			C116.7,803.2,118.7,801.2,121.2,801.2z"/>
		<path class="st0" d="M435.7,881.7h367c1.6,0,2.9,1.3,2.9,2.9v13.2c0,1.6-1.3,2.9-2.9,2.9h-367c-1.6,0-2.9-1.3-2.9-2.9v-13.2
			C432.8,883,434.1,881.7,435.7,881.7z"/>
		<path class="st0" d="M258.8,891.2h89.4c5.4,0,9.7-4.4,9.8-9.8l0,0c0-5.4-4.4-9.7-9.8-9.8h-89.4c-5.4,0-9.7,4.4-9.8,9.8l0,0
			C249,886.8,253.4,891.2,258.8,891.2z"/>
		<path class="st0" d="M732.2,846.2h89.4c5.4,0,9.7-4.4,9.8-9.8l0,0c0-5.4-4.4-9.7-9.8-9.8h-89.4c-5.4,0-9.7,4.4-9.8,9.8l0,0
			C722.5,841.8,726.8,846.2,732.2,846.2z"/>
		
			<linearGradient id="SVGID_9_" gradientUnits="userSpaceOnUse" x1="168.463" y1="776.6884" x2="480.1343" y2="236.86" gradientTransform="matrix(1 0 0 -1 0 984)">
			<stop  offset="0" style="stop-color:#00DBFF"/>
			<stop  offset="9.000000e-02" style="stop-color:#0DD3FE"/>
			<stop  offset="0.25" style="stop-color:#2EBFFC"/>
			<stop  offset="0.47" style="stop-color:#649DF8"/>
			<stop  offset="0.69" style="stop-color:#A277F3"/>
			<stop  offset="0.76" style="stop-color:#956BF5"/>
			<stop  offset="0.89" style="stop-color:#744AFA"/>
			<stop  offset="1" style="stop-color:#552BFF"/>
		</linearGradient>
		<rect x="154.6" y="215.3" class="st11" width="339.4" height="523.8"/>
		<path class="st12" d="M142.6,181.8v594.4c0,19,14.3,34.4,31.9,34.4H474c17.6,0,31.9-15.4,31.9-34.4V181.8
			c0-19-14.3-34.4-31.9-34.4H174.6C156.9,147.4,142.6,162.8,142.6,181.8z M494,739.1H154.7V215.3H494V739.1z"/>
		<path class="st13" d="M363,189h-77.3c-2.6,0-4.8-2.1-4.8-4.8c0,0,0,0,0,0l0,0c0-2.6,2.1-4.8,4.8-4.8H363c2.6,0,4.8,2.1,4.8,4.8
			l0,0C367.7,186.8,365.6,189,363,189z"/>
		<path class="st13" d="M345.7,778.2c0,11.8-9.6,21.4-21.5,21.4c-11.8,0-21.4-9.6-21.4-21.5c0-11.8,9.6-21.4,21.5-21.4
			C336.1,756.8,345.7,766.4,345.7,778.2C345.7,778.2,345.7,778.2,345.7,778.2z"/>
		<rect x="303" y="228.1" class="st14" width="42.6" height="11.1"/>
		<rect x="426.6" y="228.1" class="st14" width="42.6" height="11.1"/>
		<rect x="178.6" y="228.1" class="st14" width="42.6" height="11.1"/>
		
			<linearGradient id="SVGID_10_" gradientUnits="userSpaceOnUse" x1="188.4266" y1="323.2336" x2="225.4355" y2="259.1371" gradientTransform="matrix(1 0 0 -1 0 984)">
			<stop  offset="0" style="stop-color:#FC697D"/>
			<stop  offset="1" style="stop-color:#DC2276"/>
		</linearGradient>
		<path class="st15" d="M183.2,664.5h47.4c2.6,0,4.6,2.1,4.6,4.6v47.4c0,2.6-2.1,4.6-4.6,4.6h-47.4c-2.6,0-4.6-2.1-4.6-4.6v-47.4
			C178.6,666.6,180.7,664.5,183.2,664.5z"/>
		
			<linearGradient id="SVGID_11_" gradientUnits="userSpaceOnUse" x1="266.6717" y1="323.2336" x2="303.6806" y2="259.1371" gradientTransform="matrix(1 0 0 -1 0 984)">
			<stop  offset="0" style="stop-color:#FACF5C"/>
			<stop  offset="1" style="stop-color:#FF995A"/>
		</linearGradient>
		<path class="st16" d="M261.5,664.5h47.4c2.6,0,4.6,2.1,4.6,4.6v47.4c0,2.6-2.1,4.6-4.6,4.6h-47.4c-2.6,0-4.6-2.1-4.6-4.6v-47.4
			C256.8,666.6,258.9,664.5,261.5,664.5z"/>
		
			<linearGradient id="SVGID_12_" gradientUnits="userSpaceOnUse" x1="363.4212" y1="319.5153" x2="363.4212" y2="262.8553" gradientTransform="matrix(1 0 0 -1 0 984)">
			<stop  offset="0" style="stop-color:#BBDFF2"/>
			<stop  offset="1" style="stop-color:#8EB7FD"/>
		</linearGradient>
		<path class="st17" d="M339.7,664.5h47.4c2.6,0,4.6,2.1,4.6,4.6v47.4c0,2.6-2.1,4.6-4.6,4.6h-47.4c-2.6,0-4.6-2.1-4.6-4.6v-47.4
			C335.1,666.6,337.2,664.5,339.7,664.5z"/>
		
			<linearGradient id="SVGID_13_" gradientUnits="userSpaceOnUse" x1="423.1654" y1="323.2347" x2="460.1673" y2="259.136" gradientTransform="matrix(1 0 0 -1 0 984)">
			<stop  offset="0" style="stop-color:#682690"/>
			<stop  offset="4.000000e-02" style="stop-color:#63258E"/>
			<stop  offset="0.26" style="stop-color:#4A2185"/>
			<stop  offset="0.49" style="stop-color:#371E7F"/>
			<stop  offset="0.73" style="stop-color:#2D1D7B"/>
			<stop  offset="1" style="stop-color:#291C7A"/>
		</linearGradient>
		<path class="st18" d="M418,664.5h47.4c2.6,0,4.6,2.1,4.6,4.6v47.4c0,2.6-2.1,4.6-4.6,4.6H418c-2.6,0-4.6-2.1-4.6-4.6v-47.4
			C413.3,666.6,415.4,664.5,418,664.5z"/>
		
			<linearGradient id="SVGID_14_" gradientUnits="userSpaceOnUse" x1="811.0173" y1="-52.5112" x2="811.0173" y2="-91.5545" gradientTransform="matrix(1 0 0 -1 -80.09 799.67)">
			<stop  offset="0" style="stop-color:#445DEF"/>
			<stop  offset="0.33" style="stop-color:#4333EF"/>
			<stop  offset="1" style="stop-color:#4C008A"/>
		</linearGradient>
		<path class="st19" d="M765.3,852.2l7.2,25.4c-7,2.3-25.4,8.2-42.1,13.6h-41c0-7.4,10.9-15.5,19.2-15.5c7.6-8,14.8-14.7,14.8-14.7
			C747.8,863.2,765.3,852.2,765.3,852.2z"/>
		
			<linearGradient id="SVGID_15_" gradientUnits="userSpaceOnUse" x1="729.1538" y1="125.8759" x2="845.3668" y2="125.8759" gradientTransform="matrix(1 0 0 -1 -80.09 799.67)">
			<stop  offset="0" style="stop-color:#682690"/>
			<stop  offset="4.000000e-02" style="stop-color:#63258E"/>
			<stop  offset="0.26" style="stop-color:#4A2185"/>
			<stop  offset="0.49" style="stop-color:#371E7F"/>
			<stop  offset="0.73" style="stop-color:#2D1D7B"/>
			<stop  offset="1" style="stop-color:#291C7A"/>
		</linearGradient>
		<path class="st20" d="M718.4,604.1c-0.1,1-0.2,1.9-0.3,2.7c-2.9,28-2.2,47.3,6.8,89.9c9.7,45.7,40.3,155.4,40.3,155.4
			s-17.5,11-41.9,8.8c0,0-45.6-146.9-52.9-177c-6.5-25.7-8.8-52.3-6.8-78.8c2.3-23.1,4.6-46.1,6.5-69.3l-20.1,0.5
			c-0.3-14.5-0.6-29-0.9-43.5l48.7-4c13.9-1.1,27.4-0.5,41.2-2.5C735.9,509.6,722.1,574.5,718.4,604.1z"/>
		
			<linearGradient id="SVGID_16_" gradientUnits="userSpaceOnUse" x1="616.4508" y1="144.127" x2="755.4912" y2="144.127" gradientTransform="matrix(1 0 0 -1 -80.09 799.67)">
			<stop  offset="0" style="stop-color:#682690"/>
			<stop  offset="4.000000e-02" style="stop-color:#63258E"/>
			<stop  offset="0.26" style="stop-color:#4A2185"/>
			<stop  offset="0.49" style="stop-color:#371E7F"/>
			<stop  offset="0.73" style="stop-color:#2D1D7B"/>
			<stop  offset="1" style="stop-color:#291C7A"/>
		</linearGradient>
		<path class="st21" d="M640.5,600.6c-10.3,24.6-17.4,42.4-28.1,83.7c-9.9,38.4-30.5,127.2-35.1,147.3h0c0,0-27.4-4.4-40.9-11.5
			c0,0,21.5-120.6,28.9-160.3c6.5-34.7,14.4-57.5,21.7-75.1h0c16.3-35.6,47.4-105.2,47.4-105.2c5,1.9,18.9,6.6,41,8.7
			c-0.1,0-0.2,0.1-0.3,0.1c-2.3,1-4.8,1.9-6.4,4.2c-2.4,3.6-11.4,14.9-10,16.4c4.3,4.3,7.3-3.2,12.9-7.1c5.5-3.9,3.6,3.2,1.9,6
			s-20.4,22.3-17,24.8c2,1.5,6.4,2.2,10.6,2.3v0.1C667.2,534.9,651.9,577.3,640.5,600.6z"/>
		
			<linearGradient id="SVGID_17_" gradientUnits="userSpaceOnUse" x1="612.518" y1="-20.4962" x2="612.518" y2="-61.232" gradientTransform="matrix(1 0 0 -1 -80.09 799.67)">
			<stop  offset="0" style="stop-color:#445DEF"/>
			<stop  offset="0.33" style="stop-color:#4333EF"/>
			<stop  offset="1" style="stop-color:#4C008A"/>
		</linearGradient>
		<path class="st22" d="M577.3,831.6L577.3,831.6c-0.6,2.6-0.9,4.1-0.9,4.1l-7.9,25.2c-12.9-3.5-63.4-17.2-73.8-20
			c-29.5-8,41.7-20.7,41.7-20.7C549.9,827.2,577.3,831.6,577.3,831.6z"/>
		<path class="st23" d="M742.7,426.6c-1.3,22.5-3.6,79.4-3.6,79.4c-1.1,0.2-27.1,3.4-36.7,3.8l-0.2-0.1
			c6.5-12.7,16.5-32.4,25.8-51.6C733.4,446.9,738.6,436,742.7,426.6z"/>
		<path class="st24" d="M668.7,508.9c2.6-1.2,5.1-2.7,7.5-4.2c3.2-9.4,8-23.3,13.1-38c0,0,0.1-0.2,0.2-0.7
			c2.3-6.5,4.5-13.1,6.7-19.5c12.7,11.5,31.9,11.5,31.9,11.5c-9.3,19.2-19.3,38.9-25.8,51.6c-4.3,8.5-7.1,13.8-7.1,13.8l-0.1,0
			c-2.8,5.7-7,13.7-10.2,18.5c-5.8,8.6-11.7,12.3-17.3,13.2c-1,0.2-2,0.3-3.1,0.3c-1.3,0.1-2.7,0.1-4,0c-4.3,0-8.6-0.8-10.6-2.3
			c-3.3-2.5,15.4-21.9,17-24.8s3.7-9.9-1.9-6c-5.6,3.9-8.6,11.4-12.9,7.1c-1.4-1.5,7.6-12.9,10-16.4c1.5-2.2,4-3.1,6.4-4.2
			C668.5,509,668.5,508.9,668.7,508.9z"/>
		<path class="st23" d="M712.1,395.6c0.2,2.3-7.4,25.5-16,50.9c-2.2,6.5-4.4,13.1-6.7,19.5c1.5-6.4,13-57.5,13-64.7
			c0-7.6-20.4-88.9-15.4-109.8l1.6-5.5C688.6,286.1,711.7,390.3,712.1,395.6z"/>
		<path class="st24" d="M609.3,195.8c7-1.7,20-11.6,22.6-12.4s7.1,2.1,8.7,2.8c1.6,0.7,2,6.1,3.4,7.4c1.4,1.2,9.7,7.4,10.8,6.7
			c1.1-0.7-4-9-4-9c0.3-1.2,0.7-2.3,1.3-3.3c0.6-1,1.7-1.7,3-1.8c1.2,0.1,2.3,0.6,3.1,1.4c2.8,2.3,4.7,5.6,5.4,9.2
			c0.1,0.3,0.1,0.6,0.1,0.8c0.2,1.2-0.1,2.5-0.9,3.5c-0.8,0.7-1.9,1.1-3,1.1c0,0,5.4,7.9,8.5,6.5c2.7-1.3-3.6-9.9-4.4-11
			c1.1,1,10.9,9.6,18.7,8.3c0.1,0.7,0.2,1.4,0.4,2.1c1.1,3.2,4.7,11,6.3,14.5l0.8,1.8c-12.5,15.9-24.1,14.7-30.9,12.3l-0.4-1
			l0.4-9.2c0,0-1.4,0.5-3.2,1.2c-3.9,1.5-10.2,3.6-12,3.6c-5.8-0.2-25.1-12.1-35-35.1C609.1,195.9,609.2,195.9,609.3,195.8z"/>
		
			<linearGradient id="SVGID_18_" gradientUnits="userSpaceOnUse" x1="718.5155" y1="646.7585" x2="718.5155" y2="593.6934" gradientTransform="matrix(1 0 0 -1 -80.09 799.67)">
			<stop  offset="0" style="stop-color:#682690"/>
			<stop  offset="4.000000e-02" style="stop-color:#63258E"/>
			<stop  offset="0.26" style="stop-color:#4A2185"/>
			<stop  offset="0.49" style="stop-color:#371E7F"/>
			<stop  offset="0.73" style="stop-color:#2D1D7B"/>
			<stop  offset="1" style="stop-color:#291C7A"/>
		</linearGradient>
		<path class="st25" d="M682.6,205.8c-7.8,1.3-17.6-7.3-18.7-8.3c-0.1,0-0.1,0-0.1-0.1l-0.1-0.1h-0.1c0-0.3,0-0.6-0.1-0.8
			c-0.7-3.6-2.6-6.8-5.4-9.2c-0.8-0.8-1.9-1.3-3.1-1.4c-1.2,0.1-2.3,0.8-3,1.8c-0.6,1-1.1,2.2-1.3,3.3c0,0,5.2,8.3,4.1,9
			c-1.1,0.7-9.5-5.4-10.8-6.7c-1.4-1.2-1.9-6.7-3.4-7.4c-1.5-0.7-6-3.6-8.7-2.8c-2.6,0.8-15.6,10.7-22.6,12.4
			c-12,1.9-15-11.2-15-11.2s8.3-1.9,11.3-4.9c3-2.9,11.8-17.1,22.8-22.8c11-5.7,16.9-2.7,16.9-2.7c7.5-4.7,23.3,3.2,30.9,18.3
			C682.8,185.8,681.9,199.8,682.6,205.8z"/>
		<path class="st26" d="M663.8,197.6c0.8,1.1,7.1,9.7,4.4,11c-3,1.4-8.5-6.5-8.5-6.5c1.1,0,2.2-0.3,3-1.1c0.8-1,1.1-2.3,0.9-3.5h0.1
			L663.8,197.6C663.8,197.6,663.8,197.6,663.8,197.6z"/>
		<path class="st26" d="M657,230.6l-1.1-3.2c1.9-0.7,3.2-1.2,3.2-1.2l-0.4,9.2L657,230.6z"/>
		<path class="st23" d="M637,336.9c2.2,8,2.3,26,1.6,45.9l-3.8,15.7c-2.8,13.9-12.1,20.9-21.5,20.5c19.6-4.5,10.8-39.7,14.9-75
			c3.8-33.1,6.7-53.6,7.1-56C634.5,297.1,633,321.9,637,336.9z"/>
		
			<linearGradient id="SVGID_19_" gradientUnits="userSpaceOnUse" x1="740.7951" y1="577.2598" x2="740.7951" y2="290.7584" gradientTransform="matrix(1 0 0 -1 -80.09 799.67)">
			<stop  offset="0" style="stop-color:#FC697D"/>
			<stop  offset="1" style="stop-color:#DC2276"/>
		</linearGradient>
		<path class="st27" d="M733.4,247.3c-6.1-10.7-33.7-22.1-44.2-24.9l0.8,1.8c-12.5,15.9-24.1,14.7-30.9,12.3l-0.4-1l-1.7-4.8
			c-6.8,2.8-22.6,15-25.2,20c-1.3,2.6-4.5,16.5-8.1,33.5c-6.9,32.6-15.3,76.8-15.3,76.8l-12.1-21c-2.5,7.3-16.3,18.8-26.5,17
			c10.7,22.9,22.5,46.9,28.1,53.9c4.3,5.3,9.8,8.1,15.3,8.2c19.6-4.5,10.8-39.7,14.9-75c3.8-33.1,6.7-53.6,7.1-56
			c-0.8,9.1-2.3,33.9,1.8,48.8c2.2,8,2.3,26,1.6,45.9c-1,30.3-4.1,64.9-4.8,75.6c-1.2,17.8-10,40.8-10,40.8s22.8,7.6,44.9,9.7
			c2.6-1.2,5.1-2.7,7.5-4.2c3.2-9.4,8-23.3,13.1-38c0,0,0-0.2,0.2-0.7c1.5-6.4,13-57.5,13-64.7c0-7.6-20.4-88.9-15.4-109.8l1.6-5.5
			c0,0,23.1,104.2,23.4,109.5c0.2,2.3-7.4,25.5-16,50.9c12.7,11.5,31.9,11.5,31.9,11.5c5.4-11.1,10.6-22.1,14.7-31.4v0
			c5.3-12.1,8.9-21.3,8.7-24.3C750.9,390.4,744.6,266.8,733.4,247.3z"/>
		<path class="st24" d="M543.7,298.7L543.7,298.7c0.3-0.2,0.5-0.4,0.8-0.6l10.2-10.3c0.9-0.8,1.1-2.1,0.6-3.2l-7.8-17l0-0.1
			c-1.1-3.3-1.6-6.3,0.4-7.3c3-1.5,6.7,3.6,8.3,7.4c1,2.4,12,9.8,10.3,20.2l-0.1,0.1l29.9,52.1c-2.5,7.3-16.3,18.8-26.5,17h-0.1
			c-11.5-24.6-21.7-48-21.7-48v-0.3l-13.3-1c-10.8-3.1-12.1-12.3-13.5-21.2c-1.2-7,0.3-15.3,1.9-19.1l14.2,31
			C538.4,300.3,542.2,299.7,543.7,298.7z"/>
		<path class="st13" d="M547.5,267.6l7.8,17c0.5,1.1,0.3,2.4-0.6,3.2l-10.2,10.3c-0.2,0.2-0.5,0.4-0.8,0.5c-1.1,0.5-2.4-0.1-2.9-1.2
			l-23.3-51.1c-0.5-1-0.1-2.2,0.9-2.7c0.1,0,0.1-0.1,0.2-0.1c0.2-0.1,0.3-0.1,0.5-0.2l13.9-2c1.5-0.2,2.9,0.5,3.6,1.9l11,24.2
			L547.5,267.6z M553.5,285.4c0.4-0.4,0.5-1.1,0.3-1.7l-17.6-38.6c-0.3-0.8-1.1-1.2-1.9-1l-14.1,2c-0.8,0.1-1.3,0.8-1.2,1.6
			c0,0.1,0,0.2,0.1,0.3l21.7,47.5c0.3,0.7,1.2,1,1.9,0.6c0.1-0.1,0.3-0.1,0.4-0.3L553.5,285.4z"/>
		
			<linearGradient id="SVGID_20_" gradientUnits="userSpaceOnUse" x1="599.026" y1="529.4337" x2="633.9758" y2="529.4337" gradientTransform="matrix(1 0 0 -1 -80.09 799.67)">
			<stop  offset="0" style="stop-color:#00DBFF"/>
			<stop  offset="9.000000e-02" style="stop-color:#0DD3FE"/>
			<stop  offset="0.25" style="stop-color:#2EBFFC"/>
			<stop  offset="0.47" style="stop-color:#649DF8"/>
			<stop  offset="0.69" style="stop-color:#A277F3"/>
			<stop  offset="0.76" style="stop-color:#956BF5"/>
			<stop  offset="0.89" style="stop-color:#744AFA"/>
			<stop  offset="1" style="stop-color:#552BFF"/>
		</linearGradient>
		<path class="st28" d="M553.7,283.8c0.3,0.6,0.2,1.2-0.3,1.7L543,296c-0.5,0.5-1.4,0.5-2,0c-0.1-0.1-0.2-0.2-0.3-0.4l-21.7-47.5
			c-0.3-0.7,0-1.5,0.7-1.8c0.1,0,0.2-0.1,0.3-0.1l14.1-2c0.8-0.1,1.6,0.3,1.9,1L553.7,283.8z"/>
		<path class="st29" d="M523.3,267.4l-9.2-20.1c-0.5-1.1,0-2.3,1.1-2.8c0.2-0.1,0.3-0.1,0.5-0.1l2.7-0.8c-1,0.4-1.5,1.5-1.1,2.6
			c0,0.1,0,0.1,0.1,0.2l23.3,51.1c0.5,1.1,1.8,1.6,2.9,1.2l0.1,0.1c-1.5,1-5.3,1.6-6.2-0.3L523.3,267.4z"/>
		<path class="st30" d="M174.7,270.1h299.9c1.6,0,2.8,1.3,2.8,2.8v170.8c0,1.6-1.3,2.8-2.8,2.8H174.7c-1.6,0-2.8-1.3-2.8-2.8V272.9
			C171.9,271.4,173.2,270.1,174.7,270.1z"/>
		<path class="st30" d="M174.7,467.3h299.9c1.6,0,2.8,1.3,2.8,2.8V641c0,1.6-1.3,2.8-2.8,2.8H174.7c-1.6,0-2.8-1.3-2.8-2.8V470.2
			C171.9,468.6,173.2,467.3,174.7,467.3z"/>
		
			<linearGradient id="SVGID_21_" gradientUnits="userSpaceOnUse" x1="243.0529" y1="494.4332" x2="255.6832" y2="472.5573" gradientTransform="matrix(1 0 0 -1 0 984)">
			<stop  offset="0" style="stop-color:#FACF5C"/>
			<stop  offset="1" style="stop-color:#FF915A"/>
		</linearGradient>
		<polygon class="st31" points="248.6,486.4 252.5,494.5 261.5,495.8 255,502.1 256.5,511 248.6,506.8 240.6,511 242.1,502.1 
			235.6,495.8 244.6,494.5 		"/>
		
			<linearGradient id="SVGID_22_" gradientUnits="userSpaceOnUse" x1="281.1208" y1="493.9496" x2="293.7511" y2="472.0738" gradientTransform="matrix(1 0 0 -1 0 984)">
			<stop  offset="0" style="stop-color:#FACF5C"/>
			<stop  offset="1" style="stop-color:#FF915A"/>
		</linearGradient>
		<polygon class="st32" points="286.6,486.9 290.6,495 299.5,496.3 293.1,502.6 294.6,511.4 286.6,507.2 278.6,511.4 280.2,502.6 
			273.7,496.3 282.6,495 		"/>
		
			<linearGradient id="SVGID_23_" gradientUnits="userSpaceOnUse" x1="319.1825" y1="493.946" x2="331.8128" y2="472.0702" gradientTransform="matrix(1 0 0 -1 0 984)">
			<stop  offset="0" style="stop-color:#FACF5C"/>
			<stop  offset="1" style="stop-color:#FF915A"/>
		</linearGradient>
		<polygon class="st33" points="324.7,486.9 328.7,495 337.6,496.3 331.1,502.6 332.7,511.4 324.7,507.2 316.7,511.4 318.2,502.6 
			311.8,496.3 320.7,495 		"/>
		
			<linearGradient id="SVGID_24_" gradientUnits="userSpaceOnUse" x1="357.2483" y1="493.9496" x2="369.8807" y2="472.0702" gradientTransform="matrix(1 0 0 -1 0 984)">
			<stop  offset="0" style="stop-color:#FACF5C"/>
			<stop  offset="1" style="stop-color:#FF915A"/>
		</linearGradient>
		<polygon class="st34" points="362.7,486.9 366.7,495 375.7,496.3 369.2,502.6 370.7,511.4 362.7,507.2 354.8,511.4 356.3,502.6 
			349.8,496.3 358.8,495 		"/>
		<polygon class="st35" points="400.8,486.9 404.8,495 413.7,496.3 407.3,502.6 408.8,511.4 400.8,507.2 392.8,511.4 394.4,502.6 
			387.9,496.3 396.8,495 		"/>
		<rect x="195.2" y="540" class="st35" width="258.9" height="9"/>
		<rect x="195.2" y="562.1" class="st35" width="258.9" height="9"/>
		<rect x="195.2" y="584.2" class="st35" width="258.9" height="9"/>
		<rect x="195.2" y="606.3" class="st35" width="202.1" height="9"/>
		
			<linearGradient id="SVGID_25_" gradientUnits="userSpaceOnUse" x1="370.0137" y1="487.8102" x2="432.8099" y2="379.0508" gradientTransform="matrix(1 0 0 -1 -80.09 799.67)">
			<stop  offset="0" style="stop-color:#FACF5C"/>
			<stop  offset="1" style="stop-color:#FF7257"/>
		</linearGradient>
		<path class="st36" d="M367.9,324h-25.3v-9.4c0.5-10.6-7.7-19.6-18.3-20c-10.6-0.5-19.6,7.7-20,18.3c0,0.6,0,1.2,0,1.8v9.4h-22.7
			l-7.1,83.8h100.5L367.9,324z M309.5,314.7c0-7.7,6.2-13.9,13.9-13.9s13.9,6.2,13.9,13.9v9.4h-27.7V314.7z M286.4,329.3h17.9v1.9
			h5.3v-1.9h27.7v1.9h5.3v-1.9H363l6.2,73.2h-89L286.4,329.3z M306.9,332.7c-2,0-3.6,1.6-3.6,3.6s1.6,3.6,3.6,3.6
			c2,0,3.6-1.6,3.6-3.6c0,0,0,0,0,0C310.5,334.3,308.9,332.7,306.9,332.7C306.9,332.7,306.9,332.7,306.9,332.7L306.9,332.7z
			 M339.9,332.7c-2,0-3.6,1.6-3.6,3.6s1.6,3.6,3.6,3.6c2,0,3.6-1.6,3.6-3.6c0,0,0,0,0,0C343.5,334.3,341.9,332.7,339.9,332.7
			C339.9,332.7,339.9,332.7,339.9,332.7L339.9,332.7z"/>
		<path class="st0" d="M787.6,272.8c-6.6,0-11.9-5.3-11.9-11.9c0-6.6,5.3-11.9,11.9-11.9c6.6,0,11.9,5.3,11.9,11.9c0,0,0,0,0,0
			C799.5,267.5,794.2,272.8,787.6,272.8z M787.6,251.3c-5.3,0-9.6,4.3-9.6,9.6s4.3,9.6,9.6,9.6c5.3,0,9.6-4.3,9.6-9.6
			C797.2,255.6,792.9,251.3,787.6,251.3L787.6,251.3z"/>
		<path class="st0" d="M787.6,317.1c-6.6,0-11.9-5.3-11.9-11.9c0-6.6,5.3-11.9,11.9-11.9c6.6,0,11.9,5.3,11.9,11.9
			C799.5,311.8,794.2,317.1,787.6,317.1z M787.6,295.6c-5.3,0-9.6,4.3-9.6,9.6s4.3,9.6,9.6,9.6c5.3,0,9.6-4.3,9.6-9.6l0,0
			C797.2,299.9,792.9,295.6,787.6,295.6z"/>
		<path class="st0" d="M787.6,361.4c-6.6,0-11.9-5.3-11.9-11.9c0-6.6,5.3-11.9,11.9-11.9c6.6,0,11.9,5.3,11.9,11.9v0
			C799.5,356,794.2,361.4,787.6,361.4z M787.6,339.9c-5.3,0-9.6,4.3-9.6,9.6s4.3,9.6,9.6,9.6c5.3,0,9.6-4.3,9.6-9.6
			C797.2,344.2,792.9,339.9,787.6,339.9L787.6,339.9z"/>
		<path class="st0" d="M787.6,405.7c-6.6,0-11.9-5.3-11.9-11.9c0-6.6,5.3-11.9,11.9-11.9c6.6,0,11.9,5.3,11.9,11.9c0,0,0,0,0,0
			C799.5,400.3,794.2,405.7,787.6,405.7z M787.6,384.2c-5.3,0-9.6,4.3-9.6,9.6c0,5.3,4.3,9.6,9.6,9.6c5.3,0,9.6-4.3,9.6-9.6l0,0
			C797.2,388.5,792.9,384.2,787.6,384.2L787.6,384.2z"/>
	</g>
</g>
</svg>
